<svg xmlns="http://www.w3.org/2000/svg" xmlns:xlink="http://www.w3.org/1999/xlink" width="328.26" height="332.679" viewBox="0 0 328.26 332.679"><defs><style>.a{fill:#ccc;}.b{fill:#1968f8;}.c,.g{fill:#fff;}.d{fill:#4694f8;}.e{fill:#6bb0fc;}.f,.g{stroke:#000;stroke-miterlimit:10;}.h{filter:url(#a);}</style><filter id="a" x="21.195" y="0" width="285.261" height="285.261" filterUnits="userSpaceOnUse"><feOffset dy="7" input="SourceAlpha"/><feGaussianBlur stdDeviation="10.5" result="b"/><feFlood flood-opacity="0.439"/><feComposite operator="in" in2="b"/><feComposite in="SourceGraphic"/></filter></defs><g transform="translate(622 -136.935)"><g transform="translate(-1418.174 -229.652)"><g class="h" transform="matrix(1, 0, 0, 1, 796.17, 366.59)"><circle class="a" cx="111.13" cy="111.13" r="111.13" transform="translate(52.7 24.5)"/></g><path d="M960,621.3a118.826,118.826,0,1,1,118.826-118.826A118.96,118.96,0,0,1,960,621.3Zm0-227.473a108.647,108.647,0,1,0,108.647,108.647A108.77,108.77,0,0,0,960,393.831Z"/></g><g transform="translate(-1417.87 -233.652)"><path class="b" d="M845.313,656.873a19.764,19.764,0,0,0,2.311-1.989,33.652,33.652,0,0,0,2.661-2.955q1.347-1.665,2.663-3.6a37.039,37.039,0,0,0,2.311-3.86l8.249,4.154a22.66,22.66,0,0,1-2.6,3.948,36.766,36.766,0,0,1-3.216,3.481,31.243,31.243,0,0,1-3.306,2.749,19.551,19.551,0,0,1-2.867,1.756Z"/><path d="M795.87,702.456V653.511h16.266v35.108h16.928v13.837Z"/><path d="M874.255,701.426a20.318,20.318,0,0,1-2.355.772q-1.254.333-2.54.553a23.543,23.543,0,0,1-2.465.3q-1.179.072-2.134.073a11.206,11.206,0,0,1-5.079-1.214,6.481,6.481,0,0,1-3.313-3.5,13.655,13.655,0,0,1-4.3,3.423,14.935,14.935,0,0,1-6.883,1.362,15.157,15.157,0,0,1-5.409-.884,11.429,11.429,0,0,1-3.864-2.354,9.609,9.609,0,0,1-2.319-3.386,10.733,10.733,0,0,1-.773-4.049,10.341,10.341,0,0,1,1.252-5.3,9.973,9.973,0,0,1,3.606-3.532,21.214,21.214,0,0,1,6.883-2.208,86.522,86.522,0,0,1,9.973-1.03v-.663a6.607,6.607,0,0,0-.184-1.509,2.454,2.454,0,0,0-2.282-1.987q-1.142-.109-2.76-.11a18.724,18.724,0,0,0-2.245.184q-1.436.183-3.2.588t-3.717.993a33.782,33.782,0,0,0-3.79,1.4V667.863a30,30,0,0,1,4.121-1.434q2.281-.625,4.527-1.032t4.306-.625a33.755,33.755,0,0,1,3.459-.221q6.771,0,10.3,1.583a10.682,10.682,0,0,1,5.08,4.232,12.448,12.448,0,0,1,1.545,5.115q.293,2.98.294,5.778v7.875a3.193,3.193,0,0,0,.442,1.987,1.432,1.432,0,0,0,1.325.59,8.85,8.85,0,0,0,2.5-.368Zm-24.068-7.876a5.152,5.152,0,0,0,2.208-.478,3.511,3.511,0,0,0,1.545-1.288,4.328,4.328,0,0,0,.479-1.62,15.36,15.36,0,0,0,.111-1.765v-.662q-2.283.145-3.717.293a6.2,6.2,0,0,0-2.466.737,2.624,2.624,0,0,0-1.324,2.5Q847.023,693.55,850.187,693.55Z"/><path d="M890.595,702.456l-15.309-37.095h16.929q1.545,4.416,2.685,7.8t1.951,5.851q.81,2.466,1.325,4.2c.342,1.152.614,2.1.809,2.833q.222-1.1.737-2.8t1.288-4.195q.773-2.5,1.876-5.852t2.576-7.838h15.825l-15.235,37.095Z"/><path d="M964.27,701.426a20.32,20.32,0,0,1-2.355.772q-1.252.333-2.539.553a23.56,23.56,0,0,1-2.466.3q-1.179.072-2.134.073a11.2,11.2,0,0,1-5.078-1.214,6.475,6.475,0,0,1-3.313-3.5,13.677,13.677,0,0,1-4.3,3.423,14.941,14.941,0,0,1-6.883,1.362,15.163,15.163,0,0,1-5.41-.884,11.43,11.43,0,0,1-3.864-2.354,9.607,9.607,0,0,1-2.318-3.386,10.714,10.714,0,0,1-.773-4.049,10.341,10.341,0,0,1,1.251-5.3,9.98,9.98,0,0,1,3.606-3.532,21.222,21.222,0,0,1,6.883-2.208,86.522,86.522,0,0,1,9.973-1.03v-.663a6.607,6.607,0,0,0-.184-1.509,2.454,2.454,0,0,0-2.281-1.987q-1.143-.109-2.761-.11a18.726,18.726,0,0,0-2.245.184q-1.435.183-3.2.588t-3.717.993a33.773,33.773,0,0,0-3.79,1.4V667.863a29.992,29.992,0,0,1,4.121-1.434q2.283-.625,4.527-1.032t4.306-.625a33.757,33.757,0,0,1,3.459-.221q6.771,0,10.3,1.583a10.682,10.682,0,0,1,5.08,4.232,12.447,12.447,0,0,1,1.545,5.115q.293,2.98.294,5.778v7.875a3.193,3.193,0,0,0,.442,1.987,1.432,1.432,0,0,0,1.325.59,8.845,8.845,0,0,0,2.5-.368ZM940.2,693.55a5.16,5.16,0,0,0,2.209-.478,3.522,3.522,0,0,0,1.545-1.288,4.328,4.328,0,0,0,.478-1.62,15.142,15.142,0,0,0,.111-1.765v-.662q-2.283.145-3.717.293a6.2,6.2,0,0,0-2.466.737,2.624,2.624,0,0,0-1.324,2.5Q937.038,693.55,940.2,693.55Z"/><path d="M988.595,702.971a27.768,27.768,0,0,1-4.38.295q-5.888,0-9.163-1.8a10.421,10.421,0,0,1-4.747-5.7,17.888,17.888,0,0,1-1.031-4.969q-.22-2.832-.22-6.366V648.212h15.382v36.212c0,1.129.011,2.086.038,2.871a8.648,8.648,0,0,0,.256,1.987,2.388,2.388,0,0,0,1.216,1.435,6.6,6.6,0,0,0,2.685.4,11.35,11.35,0,0,0,3.239-.588v11.7A26.46,26.46,0,0,1,988.595,702.971Z"/><path d="M1036.546,683.909a20.832,20.832,0,0,1-1.4,7.729,16.848,16.848,0,0,1-4.122,6.108,19.088,19.088,0,0,1-6.624,4.012,25.454,25.454,0,0,1-8.832,1.435q-9.937,0-15.457-5.042t-5.52-14.022a21.626,21.626,0,0,1,1.361-7.764,17.265,17.265,0,0,1,4.049-6.219,18.578,18.578,0,0,1,6.588-4.123,25.357,25.357,0,0,1,8.979-1.472,26.791,26.791,0,0,1,9.052,1.4,18.189,18.189,0,0,1,6.552,3.938,16.446,16.446,0,0,1,4.01,6.108A22.045,22.045,0,0,1,1036.546,683.909Zm-15.9.074a12.822,12.822,0,0,0-1.066-5.631,3.986,3.986,0,0,0-3.939-2.171,4.119,4.119,0,0,0-3.863,2.134,11.428,11.428,0,0,0-1.215,5.668q0,7.58,5.152,7.58a4,4,0,0,0,3.79-2.023A11.377,11.377,0,0,0,1020.647,683.983Z"/><path class="b" d="M1049.114,702.456V667.348h-13.1V653.511h42.468v13.837h-13.1v35.108Z"/><path class="b" d="M1124.13,685.233a32.776,32.776,0,0,1-.442,5.337,13.037,13.037,0,0,1-1.765,4.821,14.012,14.012,0,0,1-3.5,3.863,17.291,17.291,0,0,1-4.452,2.393,23.237,23.237,0,0,1-5.116,1.214,44.166,44.166,0,0,1-5.41.332,47.206,47.206,0,0,1-5.631-.332,23.227,23.227,0,0,1-5.187-1.214,17.287,17.287,0,0,1-4.454-2.393,13.039,13.039,0,0,1-3.423-3.863,13.364,13.364,0,0,1-1.656-4.821,35.874,35.874,0,0,1-.4-5.337V665.361h15.824v20.9a7.673,7.673,0,0,0,.221,1.8,6.189,6.189,0,0,0,.589,1.581,3.3,3.3,0,0,0,1.692,1.472,6.274,6.274,0,0,0,2.356.442,6.556,6.556,0,0,0,2.391-.442,3.291,3.291,0,0,0,1.731-1.472,6.231,6.231,0,0,0,.589-1.581,7.781,7.781,0,0,0,.22-1.8v-20.9h15.824Z"/></g><g transform="translate(-757.549 -162.999)"><circle class="c" cx="90.783" cy="90.783" r="90.783" transform="translate(208.696 344.913)"/><path class="d" d="M365.354,491.584c-42.136-18.932-81.967-12.893-120.474,10.821-15.476-13.09-25.367-29.739-29.532-50.135,1.7,1.6,3.128,3.058,4.678,4.37a43.067,43.067,0,0,0,25.736,10.07c6.08.391,12.191.4,18.288.387,9.346-.021,18.15-2.526,26.674-6.182a147.239,147.239,0,0,0,42.719-27.985c5.086-4.747,10.3-9.383,15.742-13.713a33.425,33.425,0,0,1,16.437-7.229c7.541-1.019,13.795,1.134,18.008,7.78a8.957,8.957,0,0,1,.957,3.472c3.556,24.937-2.573,47.272-18.083,67.073-.308.394-.641.769-.969,1.147A.678.678,0,0,1,365.354,491.584Z"/><path class="e" d="M250.671,506.679c32.233-21.1,74.438-26.808,109.875-9.984C335.679,523.491,287.626,532.759,250.671,506.679Z"/><path class="b" d="M319.234,436.846c-3.611,2.48-7.144,5.081-10.847,7.417-9.941,6.275-20.353,11.628-31.814,14.608a54.051,54.051,0,0,1-11.112,1.7c-7.833.349-15.706.591-23.486-.688-12.7-2.089-22.33-8.552-27.714-20.371a12.441,12.441,0,0,1,1.53-13.059c1.793-2.425,4.524-3.3,7.409-3.713a39.012,39.012,0,0,1,16.183,1.532c9.255,2.6,18.42,5.511,27.658,8.17a157.911,157.911,0,0,0,27.685,5.763,67,67,0,0,0,22.96-1.352l1.326-.322Z"/><path class="f" d="M299.694,343a92.958,92.958,0,1,1-93.145,92.556C206.672,384.514,248.55,342.9,299.694,343Zm-84.441,74.917c1.637-.561,3.1-1.185,4.615-1.559,7.029-1.732,13.982-.763,20.777,1.121,10.18,2.823,20.238,6.085,30.409,8.944,11.467,3.223,23.055,5.913,35.109,5.229a55.5,55.5,0,0,0,32.727-13.082c5.172-4.25,10.437-8.3,16.673-10.895,8.2-3.4,16.44-4.311,24.766-.418.08.038.228-.071.344-.112C371,376.5,338.121,347.572,295.509,349.7,248.208,352.073,220.621,388.347,215.253,417.916Zm-.344,34.64a2.548,2.548,0,0,0-.054.655,86.642,86.642,0,0,0,28.078,48.064c1.194,1.055,1.971,1.058,3.308.193a131.052,131.052,0,0,1,49.32-19.416,113.247,113.247,0,0,1,68.21,8.888c1.26.582,1.982.574,2.91-.61,15.2-19.412,21.471-41.319,18.44-65.816a14.367,14.367,0,0,0-1.548-5.658,15.472,15.472,0,0,0-12.2-7.459,27.279,27.279,0,0,0-19.031,5.42,191.608,191.608,0,0,0-17.871,14.866,150.831,150.831,0,0,1-43.79,28.948,74.073,74.073,0,0,1-19.492,5.743,124.337,124.337,0,0,1-26.146.257c-8.871-.709-17.1-3.409-24.217-8.925C218.777,456.121,216.908,454.308,214.909,452.556Zm35.341,54.193c36.04,25.745,84.668,17.553,110.25-9.916C328.529,480.963,285.14,483.906,250.25,506.749Zm68.434-69.959-.183-.491a57.846,57.846,0,0,1-21.044,1.781,127.169,127.169,0,0,1-18.678-3.026c-12.4-3.213-24.646-7.025-36.974-10.529-6.469-1.839-13.01-3.294-19.793-1.969-4.284.837-7.236,3.253-8.231,7.634a14.736,14.736,0,0,0,1.17,10.589,35.106,35.106,0,0,0,15.442,15.233,43.447,43.447,0,0,0,17.472,4.264c12.9.72,25.775.846,37.825-4.721,7.462-3.447,14.754-7.294,21.945-11.28C311.511,442.127,315.013,439.307,318.684,436.79Z"/></g><g transform="translate(-969.617 -158.48)"><circle class="c" cx="9" cy="9" r="9" transform="translate(530.326 372.891)"/><path class="f" d="M526.089,381.717a13.062,13.062,0,0,1,13.344-13.237,13.224,13.224,0,1,1-13.344,13.237Zm5.5-.067a7.659,7.659,0,0,0,7.653,7.785,7.774,7.774,0,1,0,.041-15.547A7.711,7.711,0,0,0,531.592,381.65Z"/><circle class="c" cx="5.087" cy="5.087" r="5.087" transform="translate(515.652 398.228)"/><path class="f" d="M528.4,403.374a7.817,7.817,0,0,1-7.854,7.849,7.906,7.906,0,1,1,7.854-7.849Zm-3.409-.022a4.309,4.309,0,0,0-4.543-4.485,4.474,4.474,0,1,0,.175,8.945A4.324,4.324,0,0,0,524.988,403.352Z"/><circle class="g" cx="8.132" cy="8.132" r="8.132" transform="translate(557.041 445.859)"/><circle class="c" cx="5.087" cy="5.087" r="5.087" transform="translate(561.043 449.098)"/><path class="f" d="M552.2,454.3a13.062,13.062,0,0,1,13.344-13.237A13.224,13.224,0,1,1,552.2,454.3Zm5.5-.067a7.659,7.659,0,0,0,7.653,7.785,7.774,7.774,0,1,0,.041-15.547A7.71,7.71,0,0,0,557.7,454.229Z"/></g></g></svg>