<svg xmlns="http://www.w3.org/2000/svg" xmlns:xlink="http://www.w3.org/1999/xlink" width="194.567" height="110.944" viewBox="0 0 194.567 110.944"><defs><style>.a{fill:#ccc;}.b{fill:#1968f8;}.c,.g{fill:#fff;}.d{fill:#4694f8;}.e{fill:#6bb0fc;}.f,.g{stroke:#000;stroke-miterlimit:10;}.h{filter:url(#a);}</style><filter id="a" x="0" y="0" width="110.944" height="110.944" filterUnits="userSpaceOnUse"><feOffset dy="7" input="SourceAlpha"/><feGaussianBlur stdDeviation="10.5" result="b"/><feFlood flood-opacity="0.439"/><feComposite operator="in" in2="b"/><feComposite in="SourceGraphic"/></filter></defs><g transform="translate(0.567 1.623)"><g transform="translate(29.273 21.273)"><g class="h" transform="matrix(1, 0, 0, 1, -29.84, -22.9)"><ellipse class="a" cx="23.972" cy="23.972" rx="23.972" ry="23.972" transform="translate(31.5 24.5)"/></g><g transform="translate(0)"><path d="M866.806,434.916a25.632,25.632,0,1,1,25.632-25.632A25.661,25.661,0,0,1,866.806,434.916Zm0-49.068a23.436,23.436,0,1,0,23.436,23.436A23.463,23.463,0,0,0,866.806,385.848Z" transform="translate(-841.174 -383.652)"/></g></g><g transform="translate(93.189 38)"><g transform="translate(15.184)"><path class="b" d="M845.313,648.28a6.074,6.074,0,0,0,.71-.611,10.34,10.34,0,0,0,.817-.907q.414-.511.818-1.105a11.345,11.345,0,0,0,.71-1.185l2.533,1.276a6.957,6.957,0,0,1-.8,1.212,11.289,11.289,0,0,1-.988,1.069,9.6,9.6,0,0,1-1.015.844,6,6,0,0,1-.88.539Z" transform="translate(-845.313 -644.471)"/></g><g transform="translate(0 1.149)"><g transform="translate(0 1.627)"><path d="M795.87,668.542V653.511h5v10.782h5.2v4.25Z" transform="translate(-795.87 -653.511)"/></g><g transform="translate(11.346 5.018)"><path d="M845.542,675.876a6.245,6.245,0,0,1-.723.237q-.385.1-.78.17a7.229,7.229,0,0,1-.757.091q-.362.022-.655.022a3.442,3.442,0,0,1-1.56-.373,1.991,1.991,0,0,1-1.017-1.074A4.2,4.2,0,0,1,838.727,676a4.587,4.587,0,0,1-2.114.418,4.654,4.654,0,0,1-1.661-.271,3.512,3.512,0,0,1-1.187-.723,2.951,2.951,0,0,1-.712-1.04,3.3,3.3,0,0,1-.237-1.244,3.176,3.176,0,0,1,.385-1.628,3.064,3.064,0,0,1,1.107-1.085,6.518,6.518,0,0,1,2.114-.678,26.591,26.591,0,0,1,3.063-.316v-.2a2.031,2.031,0,0,0-.057-.463.753.753,0,0,0-.7-.61q-.351-.034-.848-.034a5.738,5.738,0,0,0-.69.057q-.441.056-.983.18t-1.141.305a10.359,10.359,0,0,0-1.164.43v-3.526a9.2,9.2,0,0,1,1.266-.44q.7-.192,1.39-.317t1.322-.192a10.358,10.358,0,0,1,1.062-.068,8.036,8.036,0,0,1,3.164.486,3.281,3.281,0,0,1,1.56,1.3,3.825,3.825,0,0,1,.474,1.571q.09.915.09,1.774V672.1a.98.98,0,0,0,.136.61.44.44,0,0,0,.407.181,2.717,2.717,0,0,0,.768-.113Zm-7.391-2.419a1.583,1.583,0,0,0,.678-.147,1.078,1.078,0,0,0,.474-.4,1.327,1.327,0,0,0,.147-.5,4.721,4.721,0,0,0,.034-.542v-.2q-.7.045-1.142.09a1.9,1.9,0,0,0-.757.226.806.806,0,0,0-.407.768Q837.179,673.457,838.151,673.457Z" transform="translate(-832.816 -664.551)"/></g><g transform="translate(24.389 5.267)"><path d="M879.988,676.753l-4.7-11.392h5.2q.474,1.356.825,2.4t.6,1.8q.249.757.407,1.289c.1.354.188.644.248.87q.068-.339.226-.859t.4-1.288q.237-.768.576-1.8t.791-2.407h4.86l-4.679,11.392Z" transform="translate(-875.286 -665.361)"/></g><g transform="translate(38.991 5.018)"><path d="M935.558,675.876a6.239,6.239,0,0,1-.723.237q-.385.1-.78.17a7.238,7.238,0,0,1-.757.091q-.362.022-.655.022a3.44,3.44,0,0,1-1.56-.373,1.988,1.988,0,0,1-1.017-1.074A4.2,4.2,0,0,1,928.743,676a4.588,4.588,0,0,1-2.114.418,4.656,4.656,0,0,1-1.661-.271,3.512,3.512,0,0,1-1.187-.723,2.952,2.952,0,0,1-.712-1.04,3.29,3.29,0,0,1-.237-1.244,3.176,3.176,0,0,1,.384-1.628,3.066,3.066,0,0,1,1.107-1.085,6.521,6.521,0,0,1,2.114-.678,26.589,26.589,0,0,1,3.063-.316v-.2a2.031,2.031,0,0,0-.057-.463.753.753,0,0,0-.7-.61q-.351-.034-.848-.034a5.738,5.738,0,0,0-.689.057q-.441.056-.983.18t-1.141.305a10.37,10.37,0,0,0-1.164.43v-3.526a9.209,9.209,0,0,1,1.266-.44q.7-.192,1.39-.317t1.322-.192a10.359,10.359,0,0,1,1.062-.068,8.035,8.035,0,0,1,3.164.486,3.28,3.28,0,0,1,1.56,1.3,3.821,3.821,0,0,1,.474,1.571q.09.915.09,1.774V672.1a.98.98,0,0,0,.136.61.44.44,0,0,0,.407.181,2.716,2.716,0,0,0,.768-.113Zm-7.391-2.419a1.585,1.585,0,0,0,.678-.147,1.083,1.083,0,0,0,.474-.4,1.328,1.328,0,0,0,.147-.5,4.64,4.64,0,0,0,.034-.542v-.2q-.7.045-1.142.09a1.9,1.9,0,0,0-.757.226.806.806,0,0,0-.407.768Q927.195,673.457,928.166,673.457Z" transform="translate(-922.832 -664.551)"/></g><g transform="translate(53.186)"><path d="M975.055,665.029a8.545,8.545,0,0,1-1.345.091,5.9,5.9,0,0,1-2.814-.554,3.2,3.2,0,0,1-1.458-1.752,5.49,5.49,0,0,1-.317-1.526q-.068-.87-.068-1.955V648.212h4.724v11.121q0,.52.012.882a2.654,2.654,0,0,0,.079.61.733.733,0,0,0,.373.441,2.027,2.027,0,0,0,.825.124,3.488,3.488,0,0,0,.995-.181V664.8A8.155,8.155,0,0,1,975.055,665.029Z" transform="translate(-969.054 -648.212)"/></g><g transform="translate(61.029 5.018)"><path d="M1007.476,670.5a6.4,6.4,0,0,1-.43,2.374,5.172,5.172,0,0,1-1.266,1.876,5.862,5.862,0,0,1-2.034,1.232,7.817,7.817,0,0,1-2.712.441,6.782,6.782,0,0,1-4.747-1.548,5.538,5.538,0,0,1-1.7-4.306,6.641,6.641,0,0,1,.418-2.384,5.3,5.3,0,0,1,1.244-1.91A5.705,5.705,0,0,1,998.277,665a7.789,7.789,0,0,1,2.757-.452,8.229,8.229,0,0,1,2.78.43,5.587,5.587,0,0,1,2.012,1.209,5.053,5.053,0,0,1,1.231,1.876A6.771,6.771,0,0,1,1007.476,670.5Zm-4.883.023a3.936,3.936,0,0,0-.327-1.729,1.224,1.224,0,0,0-1.21-.667,1.265,1.265,0,0,0-1.187.655,3.511,3.511,0,0,0-.373,1.741q0,2.328,1.582,2.328a1.229,1.229,0,0,0,1.164-.621A3.493,3.493,0,0,0,1002.594,670.519Z" transform="translate(-994.592 -664.551)"/></g><g transform="translate(73.75 1.627)"><path class="b" d="M1040.036,668.542V657.76h-4.023v-4.249h13.042v4.249h-4.024v10.782Z" transform="translate(-1036.013 -653.511)"/></g><g transform="translate(88.086 5.267)"><path class="b" d="M1095.419,671.464a10.056,10.056,0,0,1-.136,1.639,4,4,0,0,1-.542,1.481,4.3,4.3,0,0,1-1.074,1.186,5.313,5.313,0,0,1-1.367.735,7.134,7.134,0,0,1-1.571.373,13.561,13.561,0,0,1-1.661.1,14.492,14.492,0,0,1-1.729-.1,7.13,7.13,0,0,1-1.593-.373,5.31,5.31,0,0,1-1.368-.735,4,4,0,0,1-1.051-1.186,4.1,4.1,0,0,1-.509-1.481,11,11,0,0,1-.124-1.639v-6.1h4.86v6.42a2.347,2.347,0,0,0,.068.554,1.9,1.9,0,0,0,.181.486,1.014,1.014,0,0,0,.52.452,1.925,1.925,0,0,0,.724.136,2.012,2.012,0,0,0,.734-.136,1.011,1.011,0,0,0,.531-.452,1.914,1.914,0,0,0,.181-.486,2.4,2.4,0,0,0,.068-.554v-6.42h4.86Z" transform="translate(-1082.693 -665.361)"/></g></g></g><g transform="translate(35.234 26.535) rotate(1)"><ellipse class="c" cx="19.583" cy="19.583" rx="19.583" ry="19.583" transform="translate(0.463 0.413)"/><g transform="translate(1.407 14.83)"><path class="d" d="M32.358,17.221C23.269,13.138,14.677,14.44,6.37,19.556A18.638,18.638,0,0,1,0,8.741c.367.345.675.66,1.009.943a9.29,9.29,0,0,0,5.552,2.172c1.312.084,2.63.086,3.945.083a14.616,14.616,0,0,0,5.754-1.334,31.761,31.761,0,0,0,9.215-6.037c1.1-1.024,2.222-2.024,3.4-2.958A7.21,7.21,0,0,1,32.416.052,3.649,3.649,0,0,1,36.3,1.73a1.932,1.932,0,0,1,.206.749,18.372,18.372,0,0,1-3.9,14.468c-.066.085-.138.166-.209.247A.146.146,0,0,1,32.358,17.221Z" transform="translate(0.491 0)"/><path class="e" d="M0,4.274C6.953-.278,16.057-1.508,23.7,2.121A18.426,18.426,0,0,1,0,4.274Z" transform="translate(8.111 16.203)"/><path class="b" d="M22.9,3.107c-.779.535-1.541,1.1-2.34,1.6A24.431,24.431,0,0,1,13.7,7.858a11.659,11.659,0,0,1-2.4.367,24.436,24.436,0,0,1-5.066-.148A7.479,7.479,0,0,1,.257,3.683,2.684,2.684,0,0,1,.587.866a2.251,2.251,0,0,1,1.6-.8A8.415,8.415,0,0,1,5.676.4c2,.561,3.973,1.189,5.966,1.762A34.063,34.063,0,0,0,17.614,3.4a14.452,14.452,0,0,0,4.953-.292l.286-.069Z" transform="translate(0 2.306)"/></g><path class="f" d="M20.092,0A20.052,20.052,0,1,1,0,19.965,20.057,20.057,0,0,1,20.092,0ZM1.878,16.16c.353-.121.668-.256,1-.336a8.738,8.738,0,0,1,4.482.242c2.2.609,4.366,1.313,6.56,1.929a23.091,23.091,0,0,0,7.573,1.128,11.972,11.972,0,0,0,7.06-2.822,14.547,14.547,0,0,1,3.6-2.35,6.341,6.341,0,0,1,5.342-.09c.017.008.049-.015.074-.024A18.567,18.567,0,0,0,1.878,16.16ZM1.8,23.633a.55.55,0,0,0-.012.141A18.69,18.69,0,0,0,7.848,34.142a.488.488,0,0,0,.714.042A28.269,28.269,0,0,1,19.2,30a24.429,24.429,0,0,1,14.714,1.917c.272.126.428.124.628-.132a18.509,18.509,0,0,0,3.978-14.2,3.1,3.1,0,0,0-.334-1.22,3.337,3.337,0,0,0-2.633-1.609,5.884,5.884,0,0,0-4.105,1.169,41.332,41.332,0,0,0-3.855,3.207,32.536,32.536,0,0,1-9.446,6.244,15.978,15.978,0,0,1-4.2,1.239,26.821,26.821,0,0,1-5.64.055,9.57,9.57,0,0,1-5.224-1.925C2.638,24.4,2.235,24.01,1.8,23.633Zm7.623,11.69a18.5,18.5,0,0,0,23.782-2.139C26.312,29.76,16.953,30.4,9.427,35.323ZM24.189,20.232l-.039-.106a12.478,12.478,0,0,1-4.539.384,27.432,27.432,0,0,1-4.029-.653c-2.675-.693-5.316-1.515-7.976-2.271a9.076,9.076,0,0,0-4.27-.425A2.07,2.07,0,0,0,1.56,18.808a3.179,3.179,0,0,0,.252,2.284,7.573,7.573,0,0,0,3.331,3.286,9.372,9.372,0,0,0,3.769.92c2.783.155,5.56.182,8.159-1.018,1.61-.744,3.183-1.573,4.734-2.433C22.641,21.383,23.4,20.775,24.189,20.232Z" transform="translate(0 0)"/></g><g transform="translate(55.158 33.353)"><g transform="translate(2.906)"><ellipse class="c" cx="1.941" cy="1.941" rx="1.941" ry="1.941" transform="translate(0.914 0.952)"/><path class="f" d="M526.089,371.335a2.818,2.818,0,0,1,2.878-2.855,2.853,2.853,0,1,1-2.878,2.855Zm1.187-.014A1.652,1.652,0,0,0,528.927,373a1.677,1.677,0,1,0,.009-3.354A1.663,1.663,0,0,0,527.276,371.321Z" transform="translate(-526.088 -368.48)"/></g><g transform="translate(0 5.809)"><ellipse class="c" cx="1.097" cy="1.097" rx="1.097" ry="1.097" transform="translate(0.655 0.608)"/><path class="f" d="M516.021,397.129a1.686,1.686,0,0,1-1.694,1.693,1.705,1.705,0,1,1,1.694-1.693Zm-.735,0a.93.93,0,0,0-.98-.967.965.965,0,1,0,.038,1.93A.933.933,0,0,0,515.285,397.124Z" transform="translate(-512.617 -395.411)"/></g><g transform="translate(8.538 15.656)"><ellipse class="g" cx="1.754" cy="1.754" rx="1.754" ry="1.754" transform="translate(1.044 1.035)"/><ellipse class="c" cx="1.097" cy="1.097" rx="1.097" ry="1.097" transform="translate(1.908 1.734)"/><path class="f" d="M552.2,443.914a2.818,2.818,0,0,1,2.878-2.855,2.853,2.853,0,1,1-2.878,2.855Zm1.187-.014a1.652,1.652,0,0,0,1.651,1.679,1.677,1.677,0,1,0,.009-3.354A1.663,1.663,0,0,0,553.387,443.9Z" transform="translate(-552.199 -441.059)"/></g></g></g></svg>